# xmcd
#
# Track frame offsets:
# 150
# 16971
# 26694
# 48147
# 66219
# 75382
# 89563
# 105862
# 118728
# 121695
# 130628
# 143739
# 156060
# 176987
# 189709
# 205470
# 219360
# 236973
#
# Disc length: 3313 seconds
#
#
# Revision: 0
# Processed by: cddbd v1.5.2PL0 Copyright (c) Steve Scherf et al.
# Submitted via: FreeRIP 2.944 
#
DISCID=f30cef12
DTITLE=The Flanks - You and Me and the People Who Can't Go Home
DYEAR=2006
DGENRE=Country
TTITLE0=Everybody Wants to Be Your Man
TTITLE1=Bring It With You When You Come
TTITLE2=Pair of Rosemaries
TTITLE3=Carousel Capital of the World
TTITLE4=Hair Parted in the Middle
TTITLE5=Demolition Waltz
TTITLE6=Briefcase Full of Nobody's Business
TTITLE7=Shake Sugaree
TTITLE8=Fantastical Music (From Far-off Lands)
TTITLE9=The Blood of the Hog
TTITLE10=Hands of Time
TTITLE11=The Hanging Song
TTITLE12=Morning Star
TTITLE13=You Ain't Woman Enough
TTITLE14=Never Get Stoned
TTITLE15=Searching the Desert for the Blues
TTITLE16=Don't Shake My Tree
TTITLE17=Gather 'Round the Campfires of Hell
EXTD=Flanks for listening.
EXTT0=
EXTT1=
EXTT2=
EXTT3=
EXTT4=
EXTT5=
EXTT6=
EXTT7=
EXTT8=
EXTT9=
EXTT10=
EXTT11=
EXTT12=
EXTT13=
EXTT14=
EXTT15=
EXTT16=
EXTT17=
PLAYORDER=
